<svg width="222" height="145" viewBox="0 0 222 145" fill="none" xmlns="http://www.w3.org/2000/svg">
<g clip-path="url(#clip0_723_10190)">
<rect x="129.213" y="4.21484" width="15.1745" height="4.66907" rx="2.33454" fill="white" fill-opacity="0.15"/>
<rect x="131.547" y="5.96558" width="8.17087" height="1.16727" fill="white" fill-opacity="0.15"/>
<rect x="140.886" y="5.96558" width="12.8399" height="1.16727" fill="white" fill-opacity="0.15"/>
</g>
<rect x="171.235" y="14.1367" width="12.8399" height="4.66907" rx="2.33454" fill="white" fill-opacity="0.15"/>
<rect x="173.569" y="15.8877" width="8.17087" height="1.16727" fill="white" fill-opacity="0.3"/>
<g clip-path="url(#clip1_723_10190)">
<rect x="0.564453" y="40.3965" width="42.0216" height="4.66907" rx="2.33454" fill="white" fill-opacity="0.15"/>
<rect x="2.89893" y="42.1475" width="8.17087" height="1.16727" fill="white" fill-opacity="0.15"/>
<rect x="12.2373" y="42.1475" width="31.5162" height="1.16727" fill="white" fill-opacity="0.3"/>
</g>
<rect x="83.6895" y="41.5674" width="17.509" height="4.66907" rx="2.33454" fill="white" fill-opacity="0.15"/>
<rect x="86.0239" y="43.3184" width="12.8399" height="1.16727" fill="white" fill-opacity="0.15"/>
<rect x="25.9097" y="16.4712" width="17.509" height="4.66907" rx="2.33454" fill="white" fill-opacity="0.15"/>
<rect x="28.2441" y="18.2222" width="12.8399" height="1.16727" fill="white" fill-opacity="0.15"/>
<rect x="172.573" y="56.0728" width="48.6763" height="4.66907" rx="2.33454" fill="white" fill-opacity="0.15"/>
<rect x="174.907" y="57.8237" width="14.0072" height="1.16727" fill="white" fill-opacity="0.15"/>
<rect x="190.082" y="57.8237" width="14.0072" height="1.16727" fill="white" fill-opacity="0.15"/>
<rect x="205.256" y="57.8237" width="14.0072" height="1.16727" fill="white" fill-opacity="0.3"/>
<g clip-path="url(#clip2_723_10190)">
<rect x="164.231" y="28.1438" width="36.7689" height="4.66907" rx="2.33454" fill="white" fill-opacity="0.15"/>
<rect x="166.565" y="29.8948" width="8.17087" height="1.16727" fill="white" fill-opacity="0.15"/>
<rect x="175.904" y="29.8948" width="12.8399" height="1.16727" fill="white" fill-opacity="0.15"/>
<rect x="189.911" y="29.8948" width="30.349" height="1.16727" fill="white" fill-opacity="0.3"/>
</g>
<rect x="76.686" y="104.016" width="40.8544" height="4.66907" rx="2.33454" fill="white" fill-opacity="0.15"/>
<rect x="79.0205" y="105.767" width="8.17087" height="1.16727" fill="white" fill-opacity="0.15"/>
<rect x="88.3589" y="105.767" width="12.8399" height="1.16727" fill="white" fill-opacity="0.15"/>
<rect x="102.366" y="105.767" width="12.8399" height="1.16727" fill="white" fill-opacity="0.15"/>
<g clip-path="url(#clip3_723_10190)">
<rect x="63.8462" y="0.129395" width="15.1745" height="4.66907" rx="2.33454" fill="white" fill-opacity="0.15"/>
<rect x="66.1807" y="1.88037" width="8.17087" height="1.16727" fill="white" fill-opacity="0.15"/>
<rect x="75.5186" y="1.88037" width="30.349" height="1.16727" fill="white" fill-opacity="0.3"/>
</g>
<rect x="48.0879" y="120.942" width="26.8472" height="4.66907" rx="2.33454" transform="rotate(-180 48.0879 120.942)" fill="white" fill-opacity="0.15"/>
<rect x="45.7534" y="119.191" width="8.17087" height="1.16727" transform="rotate(-180 45.7534 119.191)" fill="white" fill-opacity="0.15"/>
<rect x="36.415" y="119.191" width="12.8399" height="1.16727" transform="rotate(-180 36.415 119.191)" fill="white" fill-opacity="0.15"/>
<g clip-path="url(#clip4_723_10190)">
<rect x="192.078" y="86.5107" width="24.5126" height="4.66907" rx="2.33454" transform="rotate(-180 192.078 86.5107)" fill="white" fill-opacity="0.15"/>
<rect x="189.744" y="84.7598" width="8.17087" height="1.16727" transform="rotate(-180 189.744 84.7598)" fill="white" fill-opacity="0.15"/>
<rect x="180.405" y="84.7598" width="12.8399" height="1.16727" transform="rotate(-180 180.405 84.7598)" fill="white" fill-opacity="0.15"/>
</g>
<g clip-path="url(#clip5_723_10190)">
<rect x="35.0781" y="70.5107" width="24.5126" height="4.66907" rx="2.33454" transform="rotate(-180 35.0781 70.5107)" fill="white" fill-opacity="0.15"/>
<rect x="32.7437" y="68.7598" width="8.17087" height="1.16727" transform="rotate(-180 32.7437 68.7598)" fill="white" fill-opacity="0.15"/>
<rect x="23.4053" y="68.7598" width="12.8399" height="1.16727" transform="rotate(-180 23.4053 68.7598)" fill="white" fill-opacity="0.15"/>
</g>
<rect x="83.106" y="139.034" width="15.7581" height="4.66907" rx="2.33454" transform="rotate(-180 83.106 139.034)" fill="white" fill-opacity="0.15"/>
<rect x="80.7715" y="137.283" width="11.089" height="1.16727" transform="rotate(-180 80.7715 137.283)" fill="white" fill-opacity="0.3"/>
<rect x="193.413" y="103.433" width="17.509" height="4.66907" rx="2.33454" transform="rotate(-180 193.413 103.433)" fill="white" fill-opacity="0.15"/>
<rect x="191.078" y="101.682" width="12.8399" height="1.16727" transform="rotate(-180 191.078 101.682)" fill="white" fill-opacity="0.15"/>
<rect x="38.4131" y="85.4326" width="17.509" height="4.66907" rx="2.33454" transform="rotate(-180 38.4131 85.4326)" fill="white" fill-opacity="0.15"/>
<rect x="36.0786" y="83.6816" width="12.8399" height="1.16727" transform="rotate(-180 36.0786 83.6816)" fill="white" fill-opacity="0.15"/>
<rect x="155.477" y="144.871" width="29.1817" height="4.66907" rx="2.33454" transform="rotate(-180 155.477 144.871)" fill="white" fill-opacity="0.15"/>
<rect x="153.142" y="143.12" width="24.5126" height="1.16727" transform="rotate(-180 153.142 143.12)" fill="white" fill-opacity="0.15"/>
<g clip-path="url(#clip6_723_10190)">
<rect x="188.16" y="129.113" width="26.8472" height="4.66907" rx="2.33454" transform="rotate(-180 188.16 129.113)" fill="white" fill-opacity="0.15"/>
<rect x="185.826" y="127.362" width="8.17087" height="1.16727" transform="rotate(-180 185.826 127.362)" fill="white" fill-opacity="0.15"/>
<rect x="176.487" y="127.362" width="30.349" height="1.16727" transform="rotate(-180 176.487 127.362)" fill="white" fill-opacity="0.3"/>
</g>
<defs>
<clipPath id="clip0_723_10190">
<rect x="129.213" y="4.21484" width="15.1745" height="4.66907" rx="2.33454" fill="white"/>
</clipPath>
<clipPath id="clip1_723_10190">
<rect x="0.564453" y="40.3965" width="42.0216" height="4.66907" rx="2.33454" fill="white"/>
</clipPath>
<clipPath id="clip2_723_10190">
<rect x="164.231" y="28.1438" width="36.7689" height="4.66907" rx="2.33454" fill="white"/>
</clipPath>
<clipPath id="clip3_723_10190">
<rect x="63.8462" y="0.129395" width="15.1745" height="4.66907" rx="2.33454" fill="white"/>
</clipPath>
<clipPath id="clip4_723_10190">
<rect x="192.078" y="86.5107" width="24.5126" height="4.66907" rx="2.33454" transform="rotate(-180 192.078 86.5107)" fill="white"/>
</clipPath>
<clipPath id="clip5_723_10190">
<rect x="35.0781" y="70.5107" width="24.5126" height="4.66907" rx="2.33454" transform="rotate(-180 35.0781 70.5107)" fill="white"/>
</clipPath>
<clipPath id="clip6_723_10190">
<rect x="188.16" y="129.113" width="26.8472" height="4.66907" rx="2.33454" transform="rotate(-180 188.16 129.113)" fill="white"/>
</clipPath>
</defs>
</svg>
