<?xml version="1.0" encoding="UTF-8"?>
<!DOCTYPE svg PUBLIC "-//W3C//DTD SVG 1.1//EN" "http://www.w3.org/Graphics/SVG/1.1/DTD/svg11.dtd">
<svg version="1.1" xmlns="http://www.w3.org/2000/svg" xmlns:xlink="http://www.w3.org/1999/xlink" x="0" y="0" width="17" height="26" viewBox="0, 0, 17, 26">
  <g id="Page-1">
    <path d="M8.5,5.5 L8.5,5.5 C8.776,5.5 9,5.724 9,6 L9,8 C9,8.276 8.776,8.5 8.5,8.5 L8.5,8.5 C8.224,8.5 8,8.276 8,8 L8,6 C8,5.724 8.224,5.5 8.5,5.5 z" fill="#FFFFFF" id="Rectangle-11"/>
    <path d="M8.5,0 C13.194,0 17,3.806 17,8.5 L17,17.5 C17,22.194 13.194,26 8.5,26 C3.806,26 0,22.194 0,17.5 L0,8.5 C0,3.806 3.806,0 8.5,0 z M8.5,1 C4.358,1 1,4.358 1,8.5 L1,17.5 C1,21.642 4.358,25 8.5,25 C12.642,25 16,21.642 16,17.5 L16,8.5 C16,4.358 12.642,1 8.5,1 z" fill="#FFFFFF"/>
  </g>
</svg>
